<svg width="2031" height="668" viewBox="0 0 2031 668" fill="none" xmlns="http://www.w3.org/2000/svg">
<path d="M646.418 312.743C652.348 320.014 655.314 329.239 655.314 340.417C655.314 347.152 654.184 353.3 651.924 358.847C649.664 364.393 646.32 369.221 641.878 373.317C637.436 377.414 631.695 380.589 624.654 382.849C617.613 385.11 609.572 386.24 600.545 386.24H534.529V219.15H592.629C610.082 219.15 623.498 222.573 632.871 229.426C642.244 236.28 646.934 246.438 646.934 259.916C646.934 268.109 644.889 275.628 640.794 282.481C636.698 289.335 630.591 294.365 622.479 297.586V298.043C632.505 300.572 640.487 305.471 646.418 312.743ZM585.575 297.41C608.187 289.472 614.079 279.248 615.647 276.34C617.214 273.433 617.998 270.062 617.998 266.234C617.998 259.42 615.49 254.102 610.48 250.273C605.47 246.445 597.678 244.57 587.116 244.648H562.89V360.748H592.165C602.42 360.669 610.572 358.664 616.62 354.718C622.668 350.772 625.692 344.977 625.692 337.32C625.692 329.663 622.322 300.905 585.575 297.41Z" fill="#FF5416"/>
<path d="M1433.82 310.619C1439.75 317.891 1442.72 327.115 1442.72 338.293C1442.72 345.029 1441.59 351.177 1439.33 356.723C1437.07 362.27 1433.72 367.098 1429.28 371.194C1424.84 375.29 1419.1 378.465 1412.06 380.726C1405.02 382.986 1396.98 384.116 1387.95 384.116H1321.93V217.026H1380.03C1397.49 217.026 1410.9 220.45 1420.28 227.303C1429.65 234.156 1434.34 244.315 1434.34 257.793C1434.34 265.985 1432.29 273.505 1428.2 280.358C1424.1 287.211 1418 292.242 1409.88 295.463V295.92C1419.91 298.448 1427.89 303.348 1433.82 310.619ZM1372.98 295.286C1395.59 287.348 1401.48 277.124 1403.05 274.217C1404.62 271.31 1405.4 267.939 1405.4 264.11C1405.4 257.296 1402.9 251.978 1397.89 248.15C1392.88 244.322 1385.08 242.447 1374.52 242.525H1350.3V358.624H1379.57C1389.83 358.546 1397.98 356.54 1404.03 352.594C1410.07 348.648 1413.1 342.854 1413.1 335.197C1413.1 327.54 1409.73 298.781 1372.98 295.286Z" fill="#FF5416"/>
<path d="M709.853 299.193C716.28 269.049 738.939 269.794 745.908 269.794C747.437 269.794 748.508 269.833 749.122 269.912V299.193C749.168 299.193 712.152 299.193 709.853 299.193ZM709.853 331.806V386.24H683.563V271.512H709.853V331.806Z" fill="#FF5416"/>
<path d="M772.774 271.519H782.82C791.794 271.519 799.064 278.797 799.064 287.767V386.24H772.774V271.512V271.519Z" fill="#FF5416"/>
<path d="M946.603 213.067V386.246H936.844C928.346 386.246 921.462 379.354 921.462 370.861H921.005C912.278 382.346 899.842 388.089 883.689 388.089C877.412 388.089 871.422 387.207 865.72 385.449C860.018 383.692 854.891 381.085 850.338 377.642C845.785 374.199 841.84 370.123 838.509 365.412C835.178 360.702 832.618 355.266 830.815 349.106C829.012 342.945 828.117 336.379 828.117 329.409C828.117 320.909 829.535 312.945 832.363 305.524C835.191 298.102 839.058 291.778 843.957 286.578C848.855 281.377 854.708 277.275 861.52 274.289C868.333 271.303 875.642 269.807 883.447 269.807C898.908 269.807 911.005 274.975 919.731 285.31H920.306V213.074H946.596L946.603 213.067ZM911.697 354.548C918.124 348.119 921.344 339.77 921.344 329.513C921.344 319.256 918.222 310.717 911.984 303.903C905.747 297.089 897.726 293.686 887.928 293.686C883.336 293.686 879.032 294.528 875.008 296.214C870.985 297.899 867.49 300.251 864.505 303.276C861.52 306.301 859.169 310.09 857.445 314.644C855.72 319.197 854.858 324.156 854.858 329.513C854.858 339.698 857.921 348.021 864.042 354.489C870.162 360.957 878.085 364.191 887.811 364.191C897.536 364.191 905.263 360.976 911.69 354.541L911.697 354.548Z" fill="#FF5416"/>
<path d="M1090.58 271.519V374.415C1090.58 381.536 1089.93 388.082 1088.63 394.053C1087.33 400.025 1085.21 405.538 1082.25 410.589C1079.3 415.639 1075.59 419.911 1071.12 423.393C1066.64 426.875 1061.11 429.593 1054.53 431.547C1047.94 433.5 1040.48 434.473 1032.13 434.473C1023.79 434.473 1015.14 433.441 1007.11 431.37C999.071 429.299 991.834 426.353 985.407 422.524L991.606 399.325C998.954 403.232 1005.44 406.1 1011.06 407.936C1016.69 409.772 1023.21 410.693 1030.64 410.693C1041.51 410.693 1049.93 408.014 1055.9 402.657C1061.87 397.3 1064.85 390.558 1064.85 382.444V370.273H1064.4C1055.44 379.615 1043.85 384.286 1029.61 384.286C1018.97 384.286 1009.4 381.974 1000.9 377.342C992.403 372.71 985.727 366.066 980.868 357.416C976.008 348.766 973.578 338.849 973.578 327.671C973.578 316.493 975.89 306.712 980.521 297.867C985.152 289.021 991.638 282.115 999.979 277.137C1008.32 272.159 1017.74 269.67 1028.22 269.67C1034.88 269.67 1041.29 270.859 1047.45 273.23C1053.61 275.602 1059.07 279.051 1063.81 283.566H1064.27C1064.27 276.909 1069.67 271.506 1076.33 271.506H1090.57L1090.58 271.519ZM1056.43 350.582C1062.44 344.265 1065.44 336.249 1065.44 326.521C1065.44 321.699 1064.6 317.237 1062.91 313.141C1061.23 309.045 1058.95 305.602 1056.08 302.806C1053.21 300.01 1049.78 297.828 1045.81 296.26C1041.83 294.692 1037.58 293.908 1033.06 293.908C1023.34 293.908 1015.46 296.972 1009.41 303.093C1003.36 309.215 1000.34 317.139 1000.34 326.867C1000.34 336.595 1003.42 345.029 1009.58 351.039C1015.74 357.05 1023.57 360.055 1033.06 360.055C1042.55 360.055 1050.42 356.9 1056.43 350.582Z" fill="#FF5416"/>
<path d="M1227.79 338.013H1144.2C1145.88 346.127 1149.65 352.523 1155.51 357.194C1161.36 361.865 1168.5 364.197 1176.92 364.197C1188.78 364.197 1198.31 359.683 1205.51 350.648L1223.87 366.379C1218.67 373.043 1211.99 378.322 1203.84 382.229C1195.69 386.135 1186.26 388.082 1175.54 388.082C1164.82 388.082 1154.45 385.671 1145.57 380.85C1136.69 376.029 1129.69 369.077 1124.56 360.01C1119.43 350.935 1116.86 340.547 1116.86 328.834C1116.86 320.184 1118.28 312.181 1121.11 304.831C1123.94 297.481 1127.84 291.242 1132.82 286.114C1137.8 280.985 1143.73 276.987 1150.62 274.113C1157.51 271.238 1164.9 269.807 1172.78 269.807C1183.88 269.807 1193.68 272.296 1202.18 277.275C1210.67 282.253 1217.18 289.106 1221.69 297.828C1226.21 306.549 1228.47 316.473 1228.47 327.573C1228.47 331.787 1228.24 335.269 1227.78 338.026L1227.79 338.013ZM1155.34 299.709C1150.05 303.727 1146.49 309.411 1144.66 316.761H1202.06C1200.91 312.089 1199.14 308.052 1196.73 304.648C1194.32 301.244 1191.18 298.559 1187.32 296.612C1183.46 294.666 1179.07 293.686 1174.17 293.686C1166.9 293.686 1160.62 295.698 1155.34 299.716V299.709Z" fill="#FF5416"/>
<path d="M1499.78 383.6C1492.2 380.615 1485.83 376.499 1480.66 371.253C1475.5 366.007 1471.46 359.748 1468.55 352.477C1465.65 345.205 1464.19 337.392 1464.19 329.049C1464.19 317.793 1466.66 307.686 1471.6 298.729C1476.53 289.772 1483.61 282.71 1492.84 277.542C1502.06 272.375 1512.6 269.788 1524.47 269.788C1536.34 269.788 1546.48 272.257 1555.59 277.196C1564.7 282.135 1571.81 289.119 1576.95 298.154C1582.07 307.189 1584.64 317.486 1584.64 329.049C1584.64 340.613 1582.07 350.772 1576.95 359.768C1571.82 368.764 1564.68 375.728 1555.54 380.667C1546.39 385.606 1536.04 388.076 1524.48 388.076C1515.6 388.076 1507.37 386.58 1499.79 383.594L1499.78 383.6ZM1548.23 354.26C1554.66 347.636 1557.88 339.234 1557.88 329.056C1557.88 318.877 1554.71 310.142 1548.35 303.564C1542 296.985 1534.04 293.686 1524.47 293.686C1514.9 293.686 1506.44 297.057 1500.24 303.792C1494.05 310.528 1490.94 318.949 1490.94 329.056C1490.94 339.162 1494.1 347.355 1500.41 354.09C1506.73 360.826 1514.74 364.197 1524.47 364.197C1534.2 364.197 1541.81 360.885 1548.24 354.26H1548.23Z" fill="#FF5416"/>
<path d="M1714.72 271.519V386.246H1703.35C1695.11 386.246 1688.43 379.563 1688.43 371.318H1688.08C1683.57 376.754 1678.25 380.909 1672.13 383.777C1666.01 386.645 1659.53 388.082 1652.72 388.082C1645.91 388.082 1640.41 387.22 1635.33 385.495C1630.24 383.77 1625.76 381.111 1621.89 377.512C1618.02 373.912 1615.06 369.071 1612.99 362.982C1610.93 356.893 1609.89 349.681 1609.89 341.338V271.512H1636.18V334.217C1636.18 339.96 1636.62 344.742 1637.5 348.57C1638.38 352.399 1639.78 355.463 1641.69 357.756C1643.61 360.049 1645.94 361.682 1648.7 362.636C1651.45 363.59 1654.86 364.073 1658.91 364.073C1662.97 364.073 1666.53 363.25 1670.05 361.604C1673.57 359.957 1676.71 357.605 1679.46 354.541C1682.21 351.477 1684.4 347.518 1686.01 342.658C1687.61 337.797 1688.42 332.381 1688.42 326.41V271.519H1714.71H1714.72Z" fill="#FF5416"/>
<path d="M1843.94 281.796C1851.41 289.799 1855.14 302.1 1855.14 318.714V386.358H1828.85V325.495C1828.85 319.524 1828.31 314.467 1827.24 310.339C1826.17 306.21 1824.52 302.93 1822.3 300.519C1820.08 298.109 1817.5 296.364 1814.55 295.293C1811.6 294.221 1808.06 293.686 1803.93 293.686C1799.49 293.686 1795.43 294.45 1791.76 295.985C1788.09 297.521 1784.95 299.735 1782.35 302.649C1779.75 305.563 1777.74 309.234 1776.32 313.677C1774.9 318.119 1774.2 323.091 1774.2 328.605V386.253H1747.91V271.526H1758.47C1767.16 271.526 1774.2 278.568 1774.2 287.257H1774.54C1779.36 281.593 1785.11 277.268 1791.77 274.282C1798.43 271.297 1805.51 269.801 1813.01 269.801C1826.18 269.801 1836.49 273.799 1843.95 281.802L1843.94 281.796Z" fill="#FF5416"/>
<path d="M1999 213.067V386.246H1989.24C1980.74 386.246 1973.86 379.354 1973.86 370.861H1973.4C1964.67 382.346 1952.24 388.089 1936.09 388.089C1929.81 388.089 1923.82 387.207 1918.12 385.449C1912.41 383.692 1907.29 381.085 1902.73 377.642C1898.18 374.199 1894.24 370.123 1890.91 365.412C1887.57 360.702 1885.01 355.266 1883.21 349.106C1881.41 342.945 1880.51 336.379 1880.51 329.409C1880.51 320.909 1881.93 312.945 1884.76 305.524C1887.59 298.102 1891.45 291.778 1896.35 286.578C1901.25 281.377 1907.1 277.275 1913.92 274.289C1920.73 271.303 1928.04 269.807 1935.84 269.807C1951.3 269.807 1963.4 274.975 1972.13 285.31H1972.7V213.074H1998.99L1999 213.067ZM1964.09 354.548C1970.52 348.119 1973.74 339.77 1973.74 329.513C1973.74 319.256 1970.62 310.717 1964.38 303.903C1958.14 297.089 1950.12 293.686 1940.32 293.686C1935.73 293.686 1931.43 294.528 1927.4 296.214C1923.38 297.899 1919.89 300.251 1916.9 303.276C1913.92 306.301 1911.57 310.09 1909.84 314.644C1908.12 319.197 1907.25 324.156 1907.25 329.513C1907.25 339.698 1910.32 348.021 1916.44 354.489C1922.56 360.957 1930.48 364.191 1940.21 364.191C1949.93 364.191 1957.66 360.976 1964.09 354.541L1964.09 354.548Z" fill="#FF5416"/>
<path d="M631.551 593.848H557.038L542.224 634.504H520.754L583.903 467.414H604.451L668.057 634.504H646.47L631.545 593.848H631.551ZM625.007 575.928L594.464 492.442H594.007L563.582 575.928H625.007Z" fill="#84CFFA"/>
<path d="M710.024 628.644C701.415 623.744 694.694 616.832 689.874 607.914C685.053 598.996 682.643 588.831 682.643 577.424C682.643 566.018 685.073 555.832 689.932 546.876C694.792 537.919 701.565 530.948 710.253 525.976C718.94 521.005 728.835 518.509 739.933 518.509C748.737 518.509 757.248 520.273 765.478 523.794C773.708 527.316 780.58 532.366 786.086 538.951L772.885 550.436C769.214 545.994 764.597 542.492 759.051 539.931C753.506 537.37 747.438 536.083 740.854 536.083C729.371 536.083 720.018 539.911 712.78 547.568C705.543 555.225 701.931 565.136 701.931 577.313C701.931 589.491 705.55 599.382 712.78 607C720.011 614.617 729.371 618.426 740.854 618.426C747.359 618.426 753.486 617.185 759.221 614.695C764.956 612.206 769.672 608.894 773.342 604.759L786.543 616.59C781.416 622.333 774.701 627.004 766.393 630.604C758.084 634.203 749.038 636 739.24 636C728.372 636 718.633 633.55 710.017 628.65L710.024 628.644Z" fill="#84CFFA"/>
<path d="M920.423 520.005V634.497H902.167V616.355H901.821C897.151 622.555 891.39 627.383 884.538 630.826C877.686 634.269 870.09 635.993 861.749 635.993C853.944 635.993 846.595 634.595 839.704 631.799C832.813 629.003 826.863 625.122 821.853 620.144C816.843 615.166 812.879 609.044 809.972 601.773C807.065 594.502 805.609 586.577 805.609 577.999C805.609 566.821 807.999 556.714 812.787 547.679C817.575 538.644 824.25 531.542 832.82 526.375C841.39 521.207 850.998 518.62 861.638 518.62C869.522 518.62 876.85 520.188 883.624 523.33C890.397 526.473 896.158 531.026 900.907 536.998H901.364V519.998H920.423V520.005ZM878.287 615.61C882.958 613.657 887.053 610.939 890.573 607.457C894.094 603.975 896.89 599.689 898.954 594.593C901.018 589.497 902.056 584.01 902.056 578.117C902.056 572.224 901.083 566.808 899.13 561.64C897.177 556.473 894.519 552.011 891.148 548.261C887.778 544.511 883.722 541.545 878.98 539.363C874.238 537.18 869.182 536.089 863.826 536.089C852.729 536.089 843.486 539.957 836.099 547.686C828.712 555.414 825.021 565.56 825.021 578.117C825.021 589.831 828.581 599.493 835.7 607.111C842.82 614.728 852.121 618.537 863.597 618.537C868.725 618.537 873.624 617.563 878.294 615.61H878.287Z" fill="#84CFFA"/>
<path d="M1062.68 461.325V634.504H1044.43V616.361H1044.08C1041.02 620.497 1037.5 624.018 1033.52 626.925C1029.54 629.833 1025.08 632.074 1020.14 633.641C1015.21 635.209 1009.98 635.993 1004.47 635.993C996.668 635.993 989.32 634.595 982.429 631.799C975.538 629.003 969.588 625.122 964.578 620.144C959.568 615.166 955.603 609.044 952.697 601.773C949.79 594.502 948.333 586.577 948.333 577.999C948.333 569.421 949.751 561.804 952.579 554.454C955.407 547.104 959.274 540.806 964.173 535.56C969.072 530.314 975.003 526.179 981.972 523.161C988.941 520.142 996.4 518.627 1004.36 518.627C1009.49 518.627 1014.43 519.313 1019.18 520.691C1023.93 522.069 1028.34 524.134 1032.44 526.891C1036.53 529.648 1040.15 533.019 1043.29 536.998H1043.63V461.318H1062.69L1062.68 461.325ZM1020.72 615.61C1025.35 613.657 1029.41 610.939 1032.89 607.457C1036.37 603.975 1039.14 599.689 1041.21 594.593C1043.27 589.497 1044.31 584.01 1044.31 578.117C1044.31 572.224 1043.34 566.808 1041.38 561.64C1039.43 556.473 1036.79 552.011 1033.46 548.261C1030.13 544.511 1026.13 541.545 1021.46 539.363C1016.79 537.181 1011.82 536.089 1006.54 536.089C995.44 536.089 986.198 539.957 978.81 547.686C971.423 555.414 967.733 565.56 967.733 578.117C967.733 589.831 971.292 599.493 978.412 607.111C985.532 614.728 994.833 618.537 1006.31 618.537C1011.29 618.537 1016.09 617.564 1020.72 615.61Z" fill="#84CFFA"/>
<path d="M1199.43 583.278H1111.48C1112.7 593.92 1116.79 602.439 1123.76 608.829C1130.73 615.218 1139.34 618.419 1149.59 618.419C1156.41 618.419 1162.53 617.021 1167.96 614.225C1173.4 611.429 1178.03 607.699 1181.86 603.027L1195.17 614.395C1190.05 621.059 1183.56 626.318 1175.72 630.185C1167.87 634.053 1158.94 635.987 1148.91 635.987C1140.88 635.987 1133.35 634.55 1126.35 631.682C1119.35 628.813 1113.32 624.848 1108.26 619.798C1103.21 614.748 1099.23 608.541 1096.32 601.192C1093.42 593.842 1091.96 585.878 1091.96 577.307C1091.96 568.735 1093.38 560.902 1096.2 553.592C1099.03 546.281 1102.88 540.081 1107.75 534.985C1112.61 529.89 1118.41 525.891 1125.14 522.984C1131.87 520.077 1139.07 518.62 1146.73 518.62C1157.21 518.62 1166.51 521.07 1174.62 525.97C1182.74 530.87 1188.99 537.625 1193.4 546.242C1197.8 554.859 1200 564.6 1200 575.471C1200 578.378 1199.81 580.985 1199.43 583.278ZM1124.4 544.635C1117.85 550.26 1113.7 557.858 1111.94 567.429H1181.06C1179.53 557.936 1175.83 550.358 1169.98 544.694C1164.13 539.029 1156.72 536.194 1147.77 536.194C1138.81 536.194 1130.95 539.01 1124.4 544.635H1124.4Z" fill="#84CFFA"/>
<path d="M1394.96 530.569C1401.69 538.533 1405.06 550.821 1405.06 567.435V634.504H1386.12V572.603C1386.12 559.896 1383.96 550.632 1379.64 544.811C1375.31 538.99 1368.56 536.083 1359.37 536.083C1350.18 536.083 1342.53 539.872 1336.4 547.45C1330.28 555.029 1327.22 565.096 1327.22 577.653V634.497H1308.28V572.368C1308.28 564.025 1307.24 557.132 1305.17 551.697C1303.1 546.261 1300.09 542.302 1296.1 539.813C1292.12 537.324 1287.11 536.083 1281.06 536.083C1271.49 536.083 1263.57 539.852 1257.29 547.392C1251.01 554.931 1247.88 565.018 1247.88 577.653V634.497H1228.94V520.005H1247.88V539.526H1248.22C1252.89 532.862 1258.6 527.714 1265.33 524.082C1272.06 520.449 1279.18 518.626 1286.69 518.626C1304.83 518.626 1316.89 526.055 1322.86 540.904H1323.31C1327.98 533.783 1333.93 528.289 1341.16 524.428C1348.39 520.567 1356.34 518.626 1364.98 518.626C1378.22 518.626 1388.22 522.605 1394.95 530.569H1394.96Z" fill="#84CFFA"/>
<path d="M1440.77 494.853C1438.17 492.252 1436.86 489.11 1436.86 485.438C1436.86 481.767 1438.16 478.507 1440.77 475.907C1443.37 473.307 1446.59 472 1450.41 472C1452.86 472 1455.12 472.594 1457.19 473.777C1459.25 474.959 1460.9 476.593 1462.12 478.657C1463.35 480.722 1463.96 482.982 1463.96 485.432C1463.96 489.103 1462.64 492.246 1460 494.846C1457.36 497.446 1454.16 498.753 1450.41 498.753C1446.66 498.753 1443.37 497.453 1440.77 494.846V494.853ZM1440.77 520.005H1459.71V634.497H1440.77V520.005Z" fill="#84CFFA"/>
<path d="M1518.21 628.644C1509.6 623.744 1502.88 616.832 1498.06 607.914C1493.24 598.996 1490.83 588.831 1490.83 577.424C1490.83 566.018 1493.26 555.832 1498.12 546.876C1502.98 537.919 1509.75 530.948 1518.44 525.976C1527.13 521.005 1537.02 518.509 1548.12 518.509C1556.93 518.509 1565.44 520.273 1573.67 523.794C1581.9 527.316 1588.77 532.366 1594.27 538.951L1581.07 550.436C1577.4 545.994 1572.79 542.492 1567.24 539.931C1561.69 537.37 1555.63 536.083 1549.04 536.083C1537.56 536.083 1528.21 539.911 1520.97 547.568C1513.73 555.225 1510.12 565.136 1510.12 577.313C1510.12 589.491 1513.74 599.382 1520.97 607C1528.2 614.617 1537.56 618.426 1549.04 618.426C1555.55 618.426 1561.68 617.185 1567.41 614.695C1573.14 612.206 1577.86 608.894 1581.53 604.759L1594.73 616.59C1589.6 622.333 1582.89 627.004 1574.58 630.604C1566.27 634.203 1557.23 636 1547.43 636C1536.56 636 1526.82 633.55 1518.21 628.65L1518.21 628.644Z" fill="#84CFFA"/>
<path d="M1610.7 619.458L1620.57 604.987C1625.39 609.502 1630.54 612.912 1636.01 615.205C1641.49 617.498 1648.01 618.648 1655.59 618.648C1662.25 618.648 1667.53 617.191 1671.43 614.284C1675.34 611.377 1677.29 607.738 1677.29 603.374C1677.29 602.224 1677.17 601.152 1676.94 600.159C1676.71 599.166 1676.25 598.226 1675.56 597.344C1674.87 596.462 1674.22 595.697 1673.61 595.044C1672.99 594.391 1672.02 593.685 1670.68 592.921C1669.34 592.156 1668.19 591.523 1667.24 591.026C1666.29 590.53 1664.85 589.916 1662.94 589.19C1661.02 588.465 1659.47 587.89 1658.29 587.466C1657.1 587.041 1655.28 586.375 1652.83 585.453C1651.6 585.068 1650.69 584.767 1650.07 584.532C1645.79 583.075 1642.17 581.697 1639.23 580.397C1636.28 579.097 1633.2 577.431 1629.98 575.399C1626.77 573.367 1624.2 571.205 1622.29 568.912C1620.38 566.619 1618.79 563.783 1617.53 560.412C1616.27 557.041 1615.63 553.33 1615.63 549.273C1615.63 540.545 1619.23 533.254 1626.42 527.394C1633.62 521.534 1642.65 518.607 1653.52 518.607C1668.29 518.607 1681.41 523.317 1692.9 532.731L1683.02 547.777C1673.84 539.813 1663.69 535.835 1652.6 535.835C1648 535.835 1643.93 537.076 1640.37 539.565C1636.81 542.054 1635.03 545.288 1635.03 549.267C1635.03 551.41 1635.55 553.363 1636.58 555.12C1637.61 556.878 1639.22 558.491 1641.4 559.942C1643.58 561.392 1645.78 562.64 1648 563.672C1650.23 564.704 1653.13 565.913 1656.73 567.291C1668.98 572.041 1676.37 575.027 1678.89 576.248C1686.78 580.155 1691.94 584.937 1694.39 590.602C1695.92 594.123 1696.69 598.297 1696.69 603.119C1696.69 607.633 1695.83 611.867 1694.11 615.806C1692.38 619.746 1689.86 623.234 1686.53 626.259C1683.2 629.284 1678.87 631.655 1673.56 633.38C1668.24 635.105 1662.25 635.967 1655.59 635.967C1638.06 635.967 1623.09 630.453 1610.7 619.432V619.458Z" fill="#84CFFA"/>
<path d="M421.054 224.073L430.01 221.51L438.966 234.322V204.822C438.966 203.083 438.147 202.13 436.527 200.621L421.054 184.976V224.073Z" fill="#E34126"/>
<path d="M106.891 71.331L115.763 80.2049L298 48.0523C300.787 47.5586 303.636 48.4617 305.633 50.4587L434.637 179.462L446.987 177.302C449.291 176.898 450.183 174.066 448.529 172.411L310.691 34.5394C308.689 32.5369 305.84 31.6394 303.059 32.133L108.428 66.4452C106.128 66.8491 105.231 69.6818 106.885 71.3366L106.891 71.331Z" fill="#FCCE0D"/>
<path d="M83.7806 90.4647L134.31 141.005C135.134 141.829 136.363 142.065 137.439 141.622C147.069 137.622 157.074 134.33 167.415 131.878C182.35 128.294 197.951 126.387 214.013 126.387C272.747 126.387 325.582 151.814 362.04 192.268C369.129 200.122 375.595 208.513 381.349 217.415C381.977 218.385 383.116 218.89 384.254 218.694L454.94 206.208C457.239 205.804 458.131 202.971 456.482 201.316L434.638 179.468L305.634 50.4589C303.632 48.462 300.783 47.5589 298.001 48.0525L115.764 80.2108L85.3228 85.5734C83.0235 85.9772 82.1262 88.8099 83.7806 90.4647Z" fill="#FF5416"/>
<path d="M336.494 191.225C346.752 200.559 355.938 211.076 363.851 222.519L360.329 223.125L342.686 226.233C337.145 216.669 329.877 209.59 324.044 203.335V203.307C320.231 199.869 316.243 196.604 312.116 193.541C298.768 183.574 283.834 175.625 267.8 170.078C250.959 164.238 232.844 161.064 214.007 161.064C195.169 161.064 178.675 163.98 162.44 169.354L148.862 155.774C169.113 147.999 191.069 143.725 214.007 143.725C253.701 143.725 290.446 156.469 320.377 178.166C320.433 178.194 320.696 178.424 320.87 178.542C320.926 178.57 320.954 178.598 320.988 178.598C326.276 182.441 331.498 186.642 336.321 191.034C336.321 191.034 336.405 191.113 336.5 191.225H336.494Z" fill="#77CCFD"/>
<path d="M370.149 232.313L347.15 236.352C343.903 236.924 341.778 240.082 342.524 243.296C348.569 269.312 348.878 302.368 342.389 337.202C331.582 314.955 316.362 292.557 297.726 271.522C295.673 269.211 292.729 267.764 289.639 267.68C279.875 267.388 271.9 269.295 271.9 269.295C301.859 299.462 324.336 333.5 335.631 365.72C325.2 401.721 308.852 433.015 290.474 455.065C280.795 454.661 270.106 452.637 258.553 448.968C224.752 438.159 188.613 414.729 156.832 382.941C151.572 377.685 146.547 372.305 141.752 366.819C132.969 356.795 124.994 346.418 118.035 335.957C105.843 317.726 96.5723 299.143 90.852 281.198C81.1162 250.656 82.9052 225.89 95.8208 211.155C97.0322 209.943 98.2492 208.726 99.4605 207.514C108.097 200.003 119.942 196.447 133.839 196.447C145.767 196.447 159.204 199.078 173.443 204.048C173.241 200.177 172.894 196.363 172.434 192.605C171.856 187.865 168.39 183.966 163.769 182.811C155.189 180.73 146.928 179.49 139.037 179.114C118.64 178.161 100.93 183.131 87.9302 194.574C86.2253 196.223 84.5484 197.894 82.9052 199.6C51.3874 232.341 32 276.84 32 325.759C32 426.144 113.638 507.799 214.002 507.799C221.976 507.799 229.833 507.277 237.517 506.267C237.535 506.249 237.554 506.249 237.573 506.267C242.743 505.605 247.858 504.708 252.855 503.609C252.883 503.609 252.911 503.581 252.945 503.581C286.139 496.328 315.98 479.971 339.697 457.292C339.753 457.236 339.843 457.174 339.899 457.118C341.66 455.413 343.393 453.68 345.07 451.947C345.126 451.89 345.188 451.862 345.216 451.801C376.649 419.065 396.003 374.622 396.003 325.759C396.003 291.604 386.559 259.647 370.144 232.313H370.149ZM49.3348 325.759C49.3348 298.711 55.8908 273.172 67.4772 250.633C67.9707 261.728 70.2532 273.721 74.3248 286.466C80.6508 306.317 90.9361 326.802 104.429 346.8C113.296 359.948 123.553 372.861 134.994 385.229C138.112 388.584 141.292 391.904 144.584 395.197C151.835 402.45 159.344 409.327 166.972 415.71C166.798 415.592 166.624 415.48 166.478 415.334C169.832 447.353 180.027 473.531 195.971 489.479C113.61 480.464 49.3292 410.477 49.3292 325.759H49.3348ZM248.122 486.91C244.308 487.717 240.466 488.385 236.535 488.901C232.98 489.047 229.486 488.671 226.104 487.773C206.604 482.686 192.965 461.337 186.701 431.282C186.673 431.136 186.645 431.024 186.617 430.906C208.601 446.623 231.336 458.47 253.292 465.465C260.863 467.894 268.171 469.683 275.192 470.839C266.236 478.641 257.078 484.161 248.122 486.904V486.91ZM332.536 439.926C331.206 441.339 329.821 442.73 328.402 444.116C324.561 447.437 320.024 450.039 314.909 451.862C325.542 436.459 335.132 418.313 343.017 398.002C344.548 415.57 341.021 429.958 332.53 439.931L332.536 439.926ZM353.74 365.26C354.026 364.306 354.262 363.381 354.52 362.427C364.777 323.246 367.059 285.798 362.522 254.65C372.864 276.178 378.674 300.304 378.674 325.759C378.674 352.746 372.146 378.29 360.531 400.801C360.01 389.79 357.755 377.887 353.746 365.26H353.74Z" fill="#1764E0"/>
<path d="M260.476 258.38C261.087 258.93 260.493 259.872 259.73 259.564C251.974 256.422 243.461 255.654 235.088 257.454C224.051 259.794 214.607 266.295 208.393 275.718C200.334 288.777 196.347 304.298 192.242 319.987C185.86 344.377 182.826 368.385 182.798 390.345H182.792C176.87 384.528 171.245 378.599 165.928 372.519C167.201 354.344 170.347 335.189 175.462 315.595C179.937 298.431 186.005 281.036 193.806 266.413C202.533 251.099 202.387 234.08 194.356 220.988C194.244 220.814 194.098 220.612 193.98 220.439C192.118 217.471 189.825 214.723 187.127 212.243C186.527 211.694 187.116 210.751 187.867 211.065C208.017 219.552 231.527 214.42 246.321 198.237C246.882 197.62 247.841 198.237 247.505 199.005C238.599 219.44 243.826 243.47 260.471 258.374L260.476 258.38Z" fill="url(#paint0_linear_3870_470)"/>
<defs>
<linearGradient id="paint0_linear_3870_470" x1="180.515" y1="306.16" x2="250.472" y2="221.087" gradientUnits="userSpaceOnUse">
<stop stop-color="#1764E0"/>
<stop offset="1" stop-color="#7CCBF1"/>
</linearGradient>
</defs>
</svg>
