<svg width="609" height="670" viewBox="0 0 609 670" fill="none" xmlns="http://www.w3.org/2000/svg">
<path d="M516.036 279.758L526.777 276.685L537.518 292.046V256.676C537.518 254.591 536.536 253.448 534.592 251.639L516.036 232.881V279.758Z" fill="#E34126"/>
<path d="M139.275 96.6198L149.915 107.26L368.463 68.7086C371.806 68.1168 375.223 69.1996 377.617 71.5939L532.326 226.269L547.136 223.68C549.9 223.196 550.969 219.799 548.985 217.815L383.683 52.5067C381.282 50.1056 377.866 49.0295 374.53 49.6214L141.118 90.7619C138.36 91.2461 137.284 94.6425 139.268 96.6266L139.275 96.6198Z" fill="#FCCE0D"/>
<path d="M111.56 119.561L172.157 180.159C173.146 181.148 174.619 181.43 175.91 180.899C187.458 176.103 199.457 172.155 211.859 169.216C229.769 164.919 248.48 162.632 267.742 162.632C338.179 162.632 401.541 193.119 445.264 241.624C453.765 251.04 461.52 261.102 468.42 271.775C469.173 272.939 470.539 273.544 471.904 273.309L556.674 258.337C559.431 257.853 560.5 254.457 558.523 252.473L532.327 226.276L377.618 71.5942C375.217 69.1998 371.8 68.117 368.464 68.7089L149.916 107.267L113.409 113.696C110.652 114.181 109.576 117.577 111.56 119.561Z" fill="#FF5416"/>
<path d="M414.628 240.373C426.929 251.564 437.946 264.175 447.435 277.895L443.212 278.621L422.053 282.347C415.408 270.88 406.692 262.392 399.697 254.893V254.86C395.124 250.737 390.342 246.823 385.392 243.15C369.385 231.199 351.475 221.669 332.246 215.017C312.049 208.016 290.325 204.209 267.734 204.209C245.143 204.209 225.363 207.707 205.892 214.15L189.609 197.867C213.896 188.545 240.226 183.42 267.734 183.42C315.338 183.42 359.404 198.701 395.299 224.716C395.366 224.749 395.682 225.025 395.89 225.166C395.958 225.2 395.991 225.233 396.032 225.233C402.374 229.84 408.635 234.878 414.419 240.144C414.419 240.144 414.52 240.238 414.635 240.373H414.628Z" fill="#77CCFD"/>
<path d="M454.989 289.638L427.407 294.48C423.513 295.166 420.964 298.953 421.859 302.807C429.109 334 429.479 373.634 421.697 415.4C408.737 388.726 390.484 361.871 368.134 336.65C365.673 333.879 362.142 332.144 358.436 332.043C346.727 331.693 337.163 333.98 337.163 333.98C373.091 370.15 400.047 410.961 413.593 449.593C401.083 492.758 381.478 530.28 359.438 556.718C347.83 556.234 335.011 553.806 321.156 549.408C280.621 536.447 237.281 508.355 199.167 470.241C192.859 463.939 186.832 457.489 181.082 450.911C170.55 438.893 160.986 426.45 152.639 413.907C138.018 392.049 126.901 369.767 120.04 348.252C108.365 311.631 110.51 281.937 125.999 264.269C127.452 262.816 128.911 261.357 130.364 259.904C140.722 250.898 154.926 246.634 171.592 246.634C185.898 246.634 202.012 249.789 219.088 255.748C218.846 251.107 218.429 246.533 217.878 242.027C217.185 236.344 213.029 231.67 207.487 230.284C197.197 227.789 187.29 226.303 177.827 225.852C153.366 224.709 132.126 230.668 116.536 244.388C114.492 246.365 112.481 248.37 110.51 250.414C72.7123 289.671 49.4619 343.026 49.4619 401.68C49.4619 522.041 147.367 619.946 267.728 619.946C277.292 619.946 286.714 619.32 295.928 618.11C295.951 618.087 295.973 618.087 295.996 618.11C302.197 617.316 308.33 616.24 314.323 614.922C314.357 614.922 314.39 614.888 314.431 614.888C354.239 606.192 390.026 586.58 418.469 559.389C418.536 559.321 418.644 559.247 418.711 559.18C420.823 557.135 422.901 555.057 424.912 552.979C424.979 552.912 425.053 552.878 425.087 552.804C462.784 513.554 485.994 460.267 485.994 401.68C485.994 360.728 474.668 322.412 454.982 289.638H454.989ZM70.2508 401.68C70.2508 369.249 78.113 338.627 92.0081 311.604C92.5999 324.907 95.3373 339.286 100.22 354.567C107.807 378.369 120.141 402.931 136.323 426.908C146.956 442.672 159.257 458.155 172.978 472.985C176.717 477.007 180.53 480.988 184.478 484.936C193.175 493.632 202.18 501.878 211.327 509.532C211.119 509.39 210.91 509.256 210.735 509.081C214.757 547.471 226.984 578.859 246.105 597.98C147.333 587.172 70.244 503.257 70.244 401.68H70.2508ZM308.647 594.9C304.073 595.868 299.466 596.669 294.751 597.287C290.487 597.462 286.297 597.012 282.242 595.936C258.857 589.835 242.5 564.238 234.988 528.202C234.954 528.027 234.92 527.893 234.887 527.751C261.251 546.596 288.517 560.801 314.848 569.188C323.927 572.1 332.691 574.245 341.111 575.631C330.37 584.986 319.387 591.604 308.647 594.893V594.9ZM409.88 538.566C408.286 540.261 406.625 541.929 404.924 543.59C400.317 547.572 394.875 550.692 388.742 552.878C401.493 534.41 412.994 512.652 422.45 488.299C424.287 509.363 420.056 526.615 409.874 538.573L409.88 538.566ZM435.31 449.041C435.653 447.898 435.935 446.788 436.245 445.645C448.546 398.667 451.283 353.767 445.842 316.419C458.244 342.232 465.212 371.159 465.212 401.68C465.212 434.037 457.383 464.665 443.455 491.655C442.829 478.453 440.125 464.181 435.317 449.041H435.31Z" fill="#1764E0"/>
<path d="M323.463 320.892C324.196 321.551 323.483 322.681 322.568 322.311C313.267 318.545 303.057 317.624 293.016 319.782C279.78 322.587 268.454 330.382 261.002 341.681C251.337 357.338 246.555 375.948 241.632 394.759C233.978 424.002 230.34 452.788 230.306 479.119H230.3C223.197 472.144 216.452 465.035 210.076 457.745C211.602 435.954 215.375 412.986 221.509 389.493C226.876 368.913 234.153 348.057 243.509 330.523C253.974 312.162 253.799 291.757 244.168 276.059C244.033 275.851 243.858 275.609 243.717 275.4C241.484 271.842 238.733 268.547 235.498 265.574C234.779 264.915 235.485 263.785 236.386 264.162C260.551 274.338 288.745 268.184 306.487 248.78C307.16 248.04 308.31 248.78 307.906 249.702C297.226 274.203 303.494 303.016 323.456 320.885L323.463 320.892Z" fill="url(#paint0_linear_3870_471)"/>
<defs>
<linearGradient id="paint0_linear_3870_471" x1="227.569" y1="378.181" x2="311.444" y2="276.16" gradientUnits="userSpaceOnUse">
<stop stop-color="#1764E0"/>
<stop offset="1" stop-color="#7CCBF1"/>
</linearGradient>
</defs>
</svg>
